<svg width="60" height="40" fill="none" version="1.1" viewBox="0 0 60 40" xmlns="http://www.w3.org/2000/svg">
 <defs>
  <clipPath id="a">
   <rect width="130" height="130" rx="3" fill="#fff"/>
  </clipPath>
 </defs>
 <g transform="matrix(.37127 0 0 .27312 .052972 4.677)">
  <g clip-path="url(#a)">
   <path d="m63.85 128.88c-2.0724-0.903-5.9811-6.743-7.7483-11.578l-0.696-1.905-3.5621-0.127c-3.3258-0.118-3.6053-0.167-4.2127-0.738-1.4002-1.317-1.0014-3.756 0.7326-4.481 0.5772-0.241 1.7956-0.367 3.5575-0.367h2.6797l-0.069-4.887-0.0689-4.8879-3.0905-0.127c-2.8248-0.116-3.1465-0.1795-3.7413-0.7388-1.4003-1.3168-1.0016-3.7557 0.7325-4.4803 0.5772-0.2412 1.7956-0.3668 3.5575-0.3668h2.6797l-0.069-4.8877-0.0689-4.8877-3.0905-0.1269c-2.8248-0.1161-3.1465-0.1796-3.7413-0.7389-1.4003-1.3168-1.0016-3.7557 0.7325-4.4802 0.5772-0.2412 1.7956-0.3669 3.5575-0.3669h2.6797l-0.069-4.8877-0.0689-4.8877-3.0911-0.1269c-2.8256-0.1161-3.147-0.1795-3.7412-0.7389-1.3997-1.3173-1.0008-3.7558 0.733-4.4802 0.5772-0.2412 1.7956-0.3669 3.5575-0.3669h2.6797l-0.069-4.8876-0.0689-4.8877-6.2643-0.2539-0.7399-0.8292c-0.7301-0.8181-0.74-0.87-0.74-3.8721v-3.0429h-22.229c-19.225 0-22.329-0.0513-22.963-0.3794-1.6044-0.8297-1.5262 0.0826-1.5262-17.819 0-11.784 0.081308-16.487 0.29304-16.952 0.16117-0.35372 0.58964-0.8447 0.95214-1.091 0.61546-0.41823 2.1431-0.45245 23.066-0.51673l22.407-0.06883v-6.1338l1.7266-1.7266h33.109l0.8633 0.86328 0.8632 0.86328v6.1338l22.407 0.06883c20.924 0.06428 22.451 0.0985 23.067 0.51673 0.362 0.24634 0.791 0.73732 0.952 1.091 0.212 0.4647 0.293 5.1682 0.293 16.952 0 17.902 0.078 16.99-1.526 17.819-0.635 0.3281-3.738 0.3794-22.963 0.3794h-22.23v3.0429c0 3.0021-0.0099 3.054-0.7399 3.8721l-0.7399 0.8292-6.2643 0.2539-0.069 4.8877-0.0689 4.8876h2.6796c1.762 0 2.9803 0.1257 3.5576 0.3669 1.7338 0.7244 2.1327 3.1629 0.733 4.4802-0.5943 0.5594-0.9157 0.6228-3.7412 0.7389l-3.0911 0.1269-0.069 4.8877-0.0689 4.8877h2.6796c1.762 0 2.9803 0.1257 3.5576 0.3669 1.7341 0.7245 2.1328 3.1634 0.7324 4.4802-0.5947 0.5593-0.9165 0.6228-3.7412 0.7389l-3.0905 0.1269-0.069 4.8877-0.0689 4.8877h2.6796c1.762 0 2.9803 0.1256 3.5576 0.3668 1.7341 0.7246 2.1328 3.1635 0.7324 4.4803-0.5947 0.5593-0.9165 0.6228-3.7412 0.7388l-3.0905 0.127-0.069 4.8879-0.0689 4.887h2.6796c3.0991 0 4.2124 0.346 4.8047 1.491 0.4938 0.955 0.5028 1.632 0.0336 2.54-0.6821 1.319-0.9929 1.42-4.7793 1.555l-3.5436 0.127-0.6961 1.905c-2.2112 6.049-6.6743 11.993-8.9534 11.923-0.1791-5e-3 -0.6716-0.16-1.0946-0.345zm2.2126-8.216c1.0337-1.611 2.4915-4.58 2.4918-5.076 1e-4 -0.239-0.8799-0.318-3.5545-0.318s-3.5547 0.079-3.5545 0.318c5e-4 0.772 3.1346 6.533 3.5545 6.533 0.0698 0 0.548-0.656 1.0627-1.457zm3.8836-12.566c0.0894-0.873 0.1271-3.073 0.0837-4.888l-0.0789-3.3009h-9.9023l-0.0788 3.3009c-0.0434 1.815-0.0058 4.015 0.0836 4.888l0.1626 1.586h9.5676zm0.0738-18.79-0.069-4.8877h-9.9023l-0.0689 4.8877-0.069 4.8877h10.178zm0-15.488-0.069-4.8877h-9.9023l-0.0689 4.8877-0.069 4.8877h10.178zm0-15.488-0.069-4.8877h-9.9023l-0.0689 4.8877-0.069 4.8876h10.178zm7.6752-31.294v-20.693h-25.391v41.387h25.391zm-30.977 7.7442v-4.8243h-6.7411c-7.2177 0-7.7325-0.0792-8.6048-1.3245-0.7943-1.1341-0.3678-3.1136 0.8489-3.9405 0.5821-0.3955 1.4676-0.457 7.5781-0.5263l6.9189-0.0784v-9.6185h-41.133v25.137h41.133zm-33.155-5.0972c-1.0339-0.3002-1.6183-0.9831-1.8001-2.1035-0.1936-1.193 0.3098-2.3755 1.2092-2.8406 0.884-0.4572 9.4929-0.534 10.46-0.0934 2.1092 0.9611 1.7642 4.4096-0.5042 5.0395-1.157 0.3213-8.2566 0.3197-9.3649-2e-3zm110.85-2.647v-12.568h-41.133v9.6185l6.919 0.0784c6.1105 0.0693 6.9959 0.1308 7.578 0.5263 1.2168 0.8269 1.6433 2.8064 0.849 3.9405-0.8723 1.2453-1.3871 1.3245-8.6048 1.3245h-6.7412v9.6485h41.133zm-17.466 2.6334c-2.13-0.6144-2.437-4.0868-0.441-4.9961 0.865-0.3944 9.507-0.4175 10.363-0.0278 2.109 0.9611 1.764 4.4096-0.504 5.0395-1.183 0.3284-8.266 0.3166-9.418-0.0156z" fill="#e29c02"/>
   <path d="m48.369 53.083c-1.3008-0.5397-1.5183-1.1459-1.6075-4.4806l-0.0841-3.1426-22.387-0.0688c-21.068-0.0648-22.426-0.0957-23.059-0.5255-0.36991-0.2512-0.80086-0.7665-0.95768-1.1451-0.20332-0.4909-0.26532-5.374-0.21611-17.02l0.069013-16.332 1.6584-1.4816h44.933v-2.9325c0-3.3853 0.3019-4.2645 1.6591-4.8316 1.282-0.53563 31.962-0.53563 33.244 0 1.3572 0.56707 1.6591 1.4463 1.6591 4.8316v2.9325h44.934l1.658 1.4816 0.077 16.334c0.068 14.557 0.033 16.418-0.328 17.105-0.843 1.6036 0.604 1.5078-23.913 1.5832l-22.387 0.0688-0.084 3.1634c-0.0816 3.0681-0.1053 3.1847-0.788 3.8668l-0.7039 0.7033-16.435 0.0502c-9.0391 0.0276-16.663-0.0446-16.943-0.1605zm29.326-26.042v-20.693h-25.391v41.387h25.391zm-30.977 7.886v-4.9362l-6.9189-0.0784c-6.1622-0.0698-6.9925-0.1284-7.5915-0.5351-1.4816-1.0061-1.5757-3.1846-0.188-4.3522l0.7726-0.6501h13.926v-9.9023h-41.133v25.391h41.133zm77.695-7.759v-12.695h-41.133v9.9023h13.926l0.7726 0.6501c0.9999 0.8413 1.2799 2.1727 0.6881 3.2716-0.8148 1.513-0.9038 1.53-8.4676 1.6157l-6.919 0.0784v9.8725h41.133z" fill="#210b02"/>
  </g>
 </g>
</svg>
